# xmcd CD database file
#
# Track frame offsets:
#	150
#	10092
#	32337
#	58625
#	78380
#	100287
#	124450
#	160150
#	192490
#	213587
#	228922
#	263520
#	286997
#
# Disc length: 4380 seconds
#
# Revision: 0
# Processed by: cddbd v1.5.1PL0 Copyright (c) Steve Scherf et al.
# Submitted via: CDex 1.51
#
DISCID=ab111a0d
DTITLE=WRENCH - Shinjuku,LIQUID,MEN,
DYEAR=1900
DGENRE=
TTITLE0=SOUND WAVE
TTITLE1=原子帰省
TTITLE2=Go a way !
TTITLE3=化身
TTITLE4=SKY,LIQUID,MEN,
TTITLE5=RIDE ON ! drastic doom's tension
TTITLE6=Biginning is start of the end
TTITLE7=PASSION
TTITLE8=DOUBLE-0-FREEDOM
TTITLE9=時空自在
TTITLE10=ヒポテーゼ2000
TTITLE11=EVAW DNUOS
TTITLE12=CD Extra "RIDE ON ! drastic doom's tention
EXTD=
EXTT0=
EXTT1=
EXTT2=
EXTT3=
EXTT4=
EXTT5=
EXTT6=
EXTT7=
EXTT8=
EXTT9=
EXTT10=
EXTT11=
EXTT12=
PLAYORDER=
